<?xml version="1.0" standalone="no"?>
<!DOCTYPE svg PUBLIC "-//W3C//DTD SVG 20010904//EN"
 "http://www.w3.org/TR/2001/REC-SVG-20010904/DTD/svg10.dtd">
<svg version="1.0" xmlns="http://www.w3.org/2000/svg"
 width="271.000000pt" height="186.000000pt" viewBox="0 0 271.000000 186.000000"
 preserveAspectRatio="xMidYMid meet">

<g transform="translate(0.000000,186.000000) scale(0.100000,-0.100000)"
fill="#000000" stroke="none">
<path d="M1196 1768 c3 -4 12 -8 21 -8 41 0 0 -10 -63 -15 -46 -4 -64 -2 -54
4 8 6 12 12 9 15 -6 7 -91 -14 -106 -26 -7 -5 -18 -6 -24 -2 -7 4 -9 3 -5 -4
3 -6 -2 -16 -11 -22 -31 -19 27 0 62 20 33 19 57 17 48 -6 -3 -8 1 -14 8 -14
18 -1 -19 -23 -43 -27 -10 -2 -18 1 -18 7 0 5 -12 5 -29 -1 -21 -7 -36 -7 -50
0 -24 13 -42 14 -22 2 11 -7 5 -11 -22 -16 -20 -4 -37 -11 -37 -15 0 -4 -17
-12 -38 -19 -29 -10 -44 -23 -60 -54 -12 -23 -22 -47 -22 -53 0 -18 31 -26 46
-13 12 10 13 9 8 -5 -3 -9 -10 -16 -15 -16 -5 0 -9 -7 -9 -15 0 -28 -28 -15
-35 15 -4 17 -10 28 -13 26 -4 -2 -16 2 -27 11 -14 10 -15 14 -5 13 27 -4 40
0 40 11 0 13 -40 5 -84 -17 -16 -7 -32 -12 -36 -9 -9 6 -85 -77 -82 -89 2 -4
-2 -14 -8 -21 -8 -9 -8 -15 0 -20 9 -6 14 1 11 18 0 4 2 7 6 7 15 0 28 -15 31
-34 3 -13 -1 -17 -11 -13 -12 4 -15 -1 -12 -23 2 -16 0 -32 -6 -35 -5 -4 -6
-11 -3 -17 5 -7 1 -9 -9 -5 -19 7 -23 -9 -4 -17 9 -3 7 -8 -5 -16 -14 -8 -15
-16 -7 -37 8 -23 7 -25 -11 -20 -23 6 -27 -12 -8 -31 9 -9 10 -15 2 -20 -19
-12 -37 -54 -26 -61 6 -3 8 -18 5 -33 -3 -15 -10 -25 -15 -22 -6 4 -8 -2 -6
-12 2 -11 11 -18 19 -16 8 2 2 -9 -14 -23 -15 -14 -28 -34 -28 -43 -1 -9 -2
-24 -3 -32 0 -8 -7 -14 -15 -12 -10 2 -12 -1 -4 -10 12 -16 15 -58 4 -58 -5 0
-8 -11 -8 -25 0 -13 2 -23 6 -21 3 2 7 -14 8 -36 4 -64 66 -178 94 -171 4 2 6
-4 3 -12 -10 -24 16 -47 45 -41 14 3 20 3 14 0 -17 -7 -17 -24 0 -24 15 -1 77
-56 77 -69 0 -5 16 -15 36 -21 19 -7 51 -28 70 -47 35 -35 105 -72 137 -73 9
0 17 -4 17 -10 0 -5 7 -7 15 -4 8 4 22 1 30 -6 9 -7 18 -10 22 -7 3 4 15 0 27
-8 11 -8 30 -15 41 -15 12 0 26 -5 33 -12 6 -6 35 -12 64 -12 29 -1 56 -5 60
-10 8 -12 341 -8 373 4 17 7 23 15 19 27 -5 17 -5 17 6 1 6 -10 15 -18 19 -18
13 0 8 34 -6 43 -7 4 -13 15 -13 23 0 8 6 14 13 12 18 -3 111 47 149 81 18 17
53 46 77 66 41 33 106 115 141 177 56 99 69 130 75 183 4 33 12 69 17 79 23
43 4 212 -38 341 -9 28 -20 72 -24 98 -7 52 -6 52 44 31 15 -5 17 -4 11 6 -5
8 -4 11 3 6 6 -3 13 -2 17 4 3 5 -2 10 -12 10 -15 0 -16 2 -3 10 9 5 16 6 18
0 2 -5 10 -6 18 -3 9 3 4 -7 -11 -23 -22 -24 -24 -30 -11 -32 9 -2 16 -8 16
-13 0 -25 49 -52 75 -43 21 8 9 24 -13 18 -13 -5 -14 -4 -3 4 7 5 11 14 7 20
-3 5 4 23 16 38 15 19 16 24 5 15 -18 -14 -22 -7 -18 26 3 19 -52 83 -69 83
-9 0 -23 -6 -30 -12 -13 -11 -13 -11 -2 1 18 22 15 31 -10 31 -24 1 -61 23
-52 32 2 3 -7 3 -21 1 -17 -4 -25 -1 -25 9 0 11 -9 13 -32 10 -30 -5 -31 -4
-25 27 5 23 3 31 -8 31 -8 0 -36 13 -62 30 -35 22 -49 27 -55 17 -6 -9 -8 -9
-8 1 0 7 -4 10 -10 7 -5 -3 -10 -3 -10 2 0 22 -191 74 -198 54 -2 -6 -10 -7
-18 -4 -7 3 -11 10 -8 15 4 6 -1 6 -14 -1 -22 -12 -81 1 -94 21 -5 8 -11 9
-15 3 -11 -13 -121 -19 -136 -7 -15 12 -78 21 -71 10z m-158 -97 c13 0 20 -5
17 -11 -3 -5 0 -10 7 -10 10 0 10 -2 -1 -9 -20 -13 -48 -2 -29 11 9 7 8 8 -7
5 -11 -2 -19 -9 -17 -15 1 -7 -11 -12 -30 -12 -30 1 -31 2 -15 14 16 12 15 14
-8 14 -14 0 -22 -5 -19 -10 4 -6 0 -15 -7 -20 -11 -8 -11 -9 3 -5 22 8 29 -2
17 -24 -12 -24 -21 -24 -36 1 -10 15 -10 22 3 35 8 8 11 15 5 15 -5 0 -17 -7
-25 -16 -17 -17 -19 -14 -10 10 3 9 14 16 24 16 11 0 21 3 23 8 5 6 26 7 105
3z m96 -26 c-4 -8 -10 -12 -15 -9 -5 3 -7 10 -4 15 4 5 1 9 -4 9 -6 0 -11 5
-11 10 0 7 6 7 20 0 11 -6 17 -16 14 -25z m391 -22 c112 -40 115 -42 116 -55
0 -7 31 -35 70 -63 73 -53 157 -146 198 -220 13 -24 27 -42 32 -40 4 3 5 -4 2
-15 -4 -14 -1 -20 7 -18 7 2 15 -3 18 -11 3 -8 0 -11 -7 -7 -15 10 -14 -9 2
-26 6 -7 13 -26 14 -43 1 -16 5 -64 9 -105 24 -265 -126 -526 -371 -645 -143
-70 -271 -89 -417 -61 -319 61 -547 335 -548 657 0 78 26 200 56 267 51 110
178 252 265 298 16 8 29 22 30 32 0 10 3 12 6 5 3 -9 15 -7 43 7 22 11 45 20
53 20 7 0 20 11 27 25 12 22 18 24 54 18 49 -7 65 -6 131 5 71 12 129 5 210
-25z m302 11 c7 -20 -25 -24 -47 -6 -22 18 -22 18 11 17 18 0 34 -5 36 -11z
m-957 -15 c0 -11 5 -17 10 -14 6 3 10 2 10 -4 0 -6 -18 -16 -40 -22 -21 -7
-40 -18 -42 -26 -3 -12 -6 -12 -22 0 -19 14 -19 16 -3 41 13 19 26 26 48 26
18 0 28 4 24 10 -3 6 -1 10 4 10 6 0 11 -9 11 -21z m889 2 c10 -6 10 -10 1
-16 -7 -4 -19 0 -28 9 -14 13 -14 16 -2 16 8 0 21 -4 29 -9z m-774 -39 c-3 -3
-11 0 -18 7 -9 10 -8 11 6 5 10 -3 15 -9 12 -12z m879 3 c-4 -8 -1 -15 5 -15
6 0 11 6 12 13 0 14 20 -29 25 -55 6 -26 -31 -23 -50 4 -9 12 -16 18 -16 13 0
-6 -3 -6 -8 0 -4 6 -19 16 -34 22 -43 19 -33 33 22 33 40 0 48 -3 44 -15z
m-1224 -96 c0 -4 -8 -6 -17 -4 -10 2 -21 4 -25 4 -3 1 -5 9 -3 19 2 9 4 19 4
21 2 7 41 -32 41 -40z m-6 -22 c3 3 6 1 6 -5 0 -7 -9 -12 -20 -12 -11 0 -20
-7 -20 -15 0 -8 -5 -15 -11 -15 -5 0 -7 5 -3 12 5 8 0 9 -14 6 -30 -8 -37 7
-15 36 18 23 18 24 44 5 14 -10 29 -16 33 -12z m166 9 c0 -3 -4 -8 -10 -11 -5
-3 -10 -1 -10 4 0 6 5 11 10 11 6 0 10 -2 10 -4z m1333 -28 c9 -7 18 -25 21
-40 2 -15 7 -32 10 -37 9 -14 -12 -24 -32 -16 -16 6 -16 7 1 16 15 9 15 12 3
25 -8 8 -21 14 -30 14 -21 0 -30 19 -12 26 9 3 13 10 10 15 -8 13 10 11 29 -3z
m-1503 -12 c0 -3 -4 -8 -10 -11 -5 -3 -10 -1 -10 4 0 6 5 11 10 11 6 0 10 -2
10 -4z m100 -26 c0 -5 -5 -10 -11 -10 -5 0 -7 5 -4 10 3 6 8 10 11 10 2 0 4
-4 4 -10z m-34 -48 c-4 -3 -12 0 -19 7 -9 9 -9 14 3 21 11 7 16 5 18 -6 2 -9
1 -18 -2 -22z m1244 -66 c0 -3 -4 -8 -10 -11 -5 -3 -10 -1 -10 4 0 6 5 11 10
11 6 0 10 -2 10 -4z m-1464 -328 c4 -7 3 -8 -5 -4 -7 4 -15 -2 -20 -16 -6 -13
-10 -18 -10 -11 -2 34 21 54 35 31z m-6 -137 c0 -6 -4 -13 -10 -16 -5 -3 -10
1 -10 9 0 9 5 16 10 16 6 0 10 -4 10 -9z"/>
<path d="M1248 1603 c7 -3 16 -2 19 1 4 3 -2 6 -13 5 -11 0 -14 -3 -6 -6z"/>
<path d="M1373 1603 c9 -2 23 -2 30 0 6 3 -1 5 -18 5 -16 0 -22 -2 -12 -5z"/>
<path d="M1188 1593 c7 -3 16 -2 19 1 4 3 -2 6 -13 5 -11 0 -14 -3 -6 -6z"/>
<path d="M1560 1555 c14 -8 30 -14 35 -14 6 0 -1 6 -15 14 -14 8 -29 14 -35
14 -5 0 1 -6 15 -14z"/>
<path d="M954 1494 c-18 -14 -18 -15 4 -4 12 6 22 13 22 15 0 8 -5 6 -26 -11z"/>
<path d="M1780 1406 c0 -2 8 -10 18 -17 15 -13 16 -12 3 4 -13 16 -21 21 -21
13z"/>
<path d="M780 1320 c-12 -16 -19 -30 -16 -30 2 0 14 14 26 30 12 17 19 30 16
30 -2 0 -14 -13 -26 -30z"/>
<path d="M1900 1231 c0 -6 4 -13 10 -16 6 -3 7 1 4 9 -7 18 -14 21 -14 7z"/>
<path d="M810 1010 l0 -150 35 0 35 0 0 150 0 150 -35 0 -35 0 0 -150z"/>
<path d="M914 1147 c-2 -7 -3 -74 -2 -148 l3 -134 113 -3 112 -3 0 31 0 30
-75 0 -75 0 0 35 0 35 75 0 c73 0 75 1 75 25 0 24 -2 25 -75 25 l-75 0 0 30 0
30 75 0 75 0 0 30 0 30 -110 0 c-82 0 -112 -3 -116 -13z"/>
<path d="M1177 1153 c-4 -3 -7 -71 -7 -150 l0 -143 110 0 110 0 0 30 0 30 -70
0 -70 0 0 120 0 120 -33 0 c-19 0 -37 -3 -40 -7z"/>
<path d="M1337 1153 c-4 -3 -7 -17 -7 -30 0 -21 5 -23 45 -23 l45 0 0 -120 0
-120 35 0 35 0 0 120 0 120 45 0 c43 0 45 1 45 30 l0 30 -118 0 c-65 0 -122
-3 -125 -7z"/>
<path d="M1619 1131 c-57 -58 -28 -117 77 -151 56 -19 65 -25 62 -44 -2 -17
-10 -21 -43 -21 -32 0 -42 5 -50 23 -12 27 -75 33 -75 6 0 -20 19 -56 39 -71
26 -20 131 -16 169 7 28 17 32 25 32 63 0 53 -15 68 -90 92 -64 20 -83 35 -74
58 10 28 84 19 84 -9 0 -9 12 -14 35 -14 29 0 35 4 35 20 0 12 -11 32 -25 45
-20 21 -34 25 -85 25 -55 0 -65 -3 -91 -29z"/>
<path d="M1820 1143 c0 -15 2 -16 10 -3 6 10 10 11 10 3 0 -7 9 -13 20 -13 32
0 23 26 -10 28 -23 2 -30 -2 -30 -15z"/>
<path d="M682 1055 c0 -16 2 -22 5 -12 2 9 2 23 0 30 -3 6 -5 -1 -5 -18z"/>
<path d="M681 884 c0 -11 3 -14 6 -6 3 7 2 16 -1 19 -3 4 -6 -2 -5 -13z"/>
<path d="M1951 864 c0 -11 3 -14 6 -6 3 7 2 16 -1 19 -3 4 -6 -2 -5 -13z"/>
<path d="M691 824 c0 -11 3 -14 6 -6 3 7 2 16 -1 19 -3 4 -6 -2 -5 -13z"/>
<path d="M1941 824 c0 -11 3 -14 6 -6 3 7 2 16 -1 19 -3 4 -6 -2 -5 -13z"/>
<path d="M981 802 c0 -24 1 -24 8 -7 l8 20 5 -20 c5 -19 6 -19 7 1 0 12 -6 24
-14 28 -11 4 -15 -2 -14 -22z"/>
<path d="M1038 825 c-7 -7 22 -45 34 -45 5 0 8 9 8 21 0 14 -5 19 -14 16 -8
-3 -16 -1 -18 4 -2 6 -6 7 -10 4z"/>
<path d="M1131 808 c-1 -34 0 -34 23 -6 15 17 15 20 3 15 -9 -3 -18 -1 -21 6
-2 7 -5 0 -5 -15z"/>
<path d="M1497 816 c-7 -17 18 -40 33 -31 5 3 10 1 10 -5 0 -8 6 -8 20 0 14 8
20 8 20 0 0 -6 4 -9 10 -5 5 3 7 13 4 23 -5 13 -4 14 4 3 13 -18 62 -23 62 -6
0 8 8 15 18 18 9 2 -18 3 -61 2 -43 0 -80 2 -83 7 -8 13 -31 9 -37 -6z m33
-11 c0 -8 -4 -15 -9 -15 -13 0 -22 16 -14 24 11 11 23 6 23 -9z m40 -5 c0 -5
-4 -10 -10 -10 -5 0 -10 5 -10 10 0 6 5 10 10 10 6 0 10 -4 10 -10z m70 0 c0
-5 -4 -10 -10 -10 -5 0 -10 5 -10 10 0 6 5 10 10 10 6 0 10 -4 10 -10z"/>
<path d="M843 806 c-4 -7 -15 -16 -23 -19 -12 -4 -11 -6 3 -6 10 -1 20 6 23
14 4 8 10 12 15 9 5 -3 9 0 9 5 0 15 -18 14 -27 -3z"/>
<path d="M880 803 c0 -15 2 -16 10 -3 5 8 10 10 10 5 0 -6 -5 -16 -12 -23 -9
-9 -8 -12 5 -12 11 0 17 8 17 25 0 16 -6 25 -15 25 -8 0 -15 -8 -15 -17z"/>
<path d="M920 806 c0 -8 5 -18 10 -21 6 -3 10 3 10 14 0 12 -4 21 -10 21 -5 0
-10 -6 -10 -14z"/>
<path d="M953 800 c1 -11 5 -20 9 -20 3 0 6 9 5 20 -1 11 -5 20 -9 20 -3 0 -6
-9 -5 -20z"/>
<path d="M1090 800 c0 -11 2 -20 4 -20 2 0 6 9 9 20 3 11 1 20 -4 20 -5 0 -9
-9 -9 -20z"/>
<path d="M1182 800 c0 -14 2 -19 5 -12 2 6 2 18 0 25 -3 6 -5 1 -5 -13z"/>
<path d="M1205 811 c-9 -8 -5 -31 5 -31 5 0 6 8 3 18 -6 14 -4 15 9 4 13 -10
17 -10 21 2 4 10 0 14 -14 13 -11 -1 -22 -3 -24 -6z"/>
<path d="M1307 803 c4 -9 0 -11 -13 -6 -12 4 -15 3 -10 -5 11 -18 36 -15 36 4
0 10 5 14 16 10 8 -3 12 -2 9 3 -9 15 -44 9 -38 -6z"/>
<path d="M1363 807 c-12 -20 15 -26 36 -8 l22 19 -27 -2 c-14 0 -28 -5 -31 -9z"/>
<path d="M1447 803 c4 -9 0 -11 -13 -7 -15 6 -17 4 -7 -6 10 -11 15 -11 28 0
19 16 19 27 1 27 -8 0 -12 -6 -9 -14z"/>
<path d="M1736 813 c-3 -4 -6 -11 -6 -17 0 -6 5 -4 10 4 8 13 10 12 10 -2 0
-10 5 -18 10 -18 15 0 12 27 -4 33 -8 3 -17 3 -20 0z"/>
<path d="M1782 800 c0 -14 2 -19 5 -12 2 6 2 18 0 25 -3 6 -5 1 -5 -13z"/>
<path d="M1803 788 c1 -10 2 -18 4 -18 1 0 7 8 12 18 7 14 6 19 -4 19 -7 0
-13 -9 -12 -19z"/>
<path d="M1685 790 c-2 -3 5 -7 16 -7 10 -1 19 2 19 6 0 9 -29 10 -35 1z"/>
<path d="M1885 679 c-4 -6 -5 -12 -2 -15 2 -3 7 2 10 11 7 17 1 20 -8 4z"/>
<path d="M1761 507 c-13 -21 -12 -21 5 -5 10 10 16 20 13 22 -3 3 -11 -5 -18
-17z"/>
<path d="M895 486 c22 -20 44 -36 49 -36 5 0 7 1 5 3 -2 2 -24 18 -49 36 l-45
33 40 -36z"/>
<path d="M1628 414 c-38 -20 -36 -28 2 -9 17 9 30 18 30 20 0 7 -1 6 -32 -11z"/>
<path d="M1090 376 c0 -2 7 -7 16 -10 8 -3 12 -2 9 4 -6 10 -25 14 -25 6z"/>
<path d="M1228 333 c7 -3 16 -2 19 1 4 3 -2 6 -13 5 -11 0 -14 -3 -6 -6z"/>
<path d="M1798 1633 c7 -3 16 -2 19 1 4 3 -2 6 -13 5 -11 0 -14 -3 -6 -6z"/>
<path d="M805 1600 c-19 -8 -19 -9 3 -9 12 -1 22 4 22 9 0 6 -1 10 -2 9 -2 0
-12 -4 -23 -9z"/>
<path d="M2126 1213 c-6 -14 -5 -15 5 -6 7 7 10 15 7 18 -3 3 -9 -2 -12 -12z"/>
<path d="M2158 1223 c7 -3 16 -2 19 1 4 3 -2 6 -13 5 -11 0 -14 -3 -6 -6z"/>
<path d="M2235 1210 c3 -5 8 -10 11 -10 2 0 4 5 4 10 0 6 -5 10 -11 10 -5 0
-7 -4 -4 -10z"/>
<path d="M2123 1172 c0 -12 5 -22 9 -22 11 0 10 12 -2 30 -7 12 -9 10 -7 -8z"/>
<path d="M2188 1103 c7 -3 16 -2 19 1 4 3 -2 6 -13 5 -11 0 -14 -3 -6 -6z"/>
<path d="M2260 1090 c0 -5 5 -10 11 -10 5 0 7 5 4 10 -3 6 -8 10 -11 10 -2 0
-4 -4 -4 -10z"/>
<path d="M2145 1021 c-3 -5 -1 -12 5 -16 5 -3 10 1 10 9 0 18 -6 21 -15 7z"/>
<path d="M2170 976 c0 -2 8 -10 18 -17 15 -13 16 -12 3 4 -13 16 -21 21 -21
13z"/>
<path d="M2230 796 c0 -2 7 -9 15 -16 12 -10 15 -10 15 4 0 9 -7 16 -15 16 -8
0 -15 -2 -15 -4z"/>
<path d="M2186 681 c-4 -5 0 -12 6 -14 10 -4 10 -6 0 -6 -7 -1 -10 -6 -7 -11
9 -15 25 -2 25 21 0 20 -15 26 -24 10z"/>
<path d="M1806 332 c-2 -4 -1 -14 4 -22 7 -11 11 -11 24 2 14 15 14 17 0 22
-20 8 -22 8 -28 -2z"/>
<path d="M1715 280 c-3 -6 1 -7 9 -4 18 7 21 14 7 14 -6 0 -13 -4 -16 -10z"/>
<path d="M1678 258 c5 -5 16 -8 23 -6 8 3 3 7 -10 11 -17 4 -21 3 -13 -5z"/>
</g>
</svg>
